<svg xml:space="preserve" style="max-height: 500px" viewBox="1106.9828 1059.52 950.4 1003.2" y="0px" x="0px" xmlns:xlink="http://www.w3.org/1999/xlink" xmlns="http://www.w3.org/2000/svg" version="1.1" width="950.4" height="1003.2">
<g id="background">
	<rect height="2200" width="2200" style="fill:#FFFFFF;" y="0"/>
</g>
<g id="Objects">
	<g>
		<path d="M895.083,1864.079v51.463c-24.728,17.391-51.248,32.094-79.337,43.97&#10;&#9;&#9;&#9;c-52.856,22.36-109.005,33.701-166.868,33.701c-57.864,0-114.013-11.341-166.869-33.701c-28.089-11.877-54.61-26.579-79.328-43.97&#10;&#9;&#9;&#9;v-51.463c0-56.139,21.854-108.917,61.556-148.62c39.693-39.693,92.471-61.556,148.61-61.556h72.059&#10;&#9;&#9;&#9;c56.139,0,108.917,21.863,148.62,61.556C873.22,1755.161,895.083,1807.939,895.083,1864.079z" style="fill:#AEB6BA;"/>
		<path d="M772.37,1441.388c0,68.094-55.399,123.493-123.493,123.493s-123.483-55.399-123.483-123.493&#10;&#9;&#9;&#9;c0-68.094,55.389-123.483,123.483-123.483S772.37,1373.294,772.37,1441.388z" style="fill:#AEB6BA;"/>
		<path d="M1043.878,1397.651c-21.59-51.053-52.505-96.904-91.867-136.266&#10;&#9;&#9;&#9;c-39.372-39.362-85.212-70.276-136.266-91.867c-52.856-22.36-109.005-33.691-166.868-33.691&#10;&#9;&#9;&#9;c-57.864,0-114.013,11.331-166.869,33.691c-51.053,21.59-96.894,52.505-136.256,91.867&#10;&#9;&#9;&#9;c-39.372,39.362-70.276,85.212-91.867,136.266c-22.36,52.856-33.701,109.005-33.701,166.869s11.341,114.013,33.701,166.869&#10;&#9;&#9;&#9;c21.591,51.053,52.495,96.894,91.867,136.256c9.168,9.168,18.677,17.878,28.537,26.111v-29.677&#10;&#9;&#9;&#9;c0-63.719,24.815-123.629,69.867-168.69c45.061-45.062,104.971-69.877,168.69-69.877h72.059&#10;&#9;&#9;&#9;c63.729,0,123.629,24.815,168.69,69.877c45.052,45.061,69.867,104.971,69.867,168.69v29.687&#10;&#9;&#9;&#9;c9.86-8.233,19.379-16.953,28.547-26.121c39.362-39.362,70.276-85.203,91.867-136.256c22.36-52.856,33.691-109.005,33.691-166.869&#10;&#9;&#9;&#9;S1066.238,1450.507,1043.878,1397.651z M648.877,1593.262c-83.741,0-151.874-68.123-151.874-151.874&#10;&#9;&#9;&#9;c0-83.741,68.133-151.874,151.874-151.874c83.751,0,151.874,68.133,151.874,151.874&#10;&#9;&#9;&#9;C800.751,1525.139,732.628,1593.262,648.877,1593.262z" style="fill:#AEB6BA;"/>
	</g>
	<g>
		<circle r="414.498" cy="1564.518" cx="1565.317" style="fill:#DFE5E8;"/>
		<path d="M1825.716,1864.077v22.935c-71.163,57.542-161.754,92.003-260.401,92.003&#10;&#9;&#9;&#9;c-98.638,0-189.239-34.461-260.392-91.984v-22.954c0-123.912,100.451-224.372,224.362-224.372h72.069&#10;&#9;&#9;&#9;C1725.265,1639.705,1825.716,1740.165,1825.716,1864.077z" style="fill:#AEB6BA;"/>
		<circle r="137.681" cy="1441.391" cx="1565.317" style="fill:#AEB6BA;"/>
	</g>
	<g>
		<path d="M1043.876,454.416c-21.593-51.05-52.501-96.895-91.866-136.261&#10;&#9;&#9;&#9;c-39.366-39.366-85.21-70.274-136.261-91.866c-52.86-22.358-109.003-33.694-166.87-33.694s-114.011,11.336-166.871,33.694&#10;&#9;&#9;&#9;c-51.05,21.592-96.895,52.5-136.26,91.866s-70.274,85.21-91.867,136.261c-22.358,52.86-33.694,109.004-33.694,166.871&#10;&#9;&#9;&#9;s11.336,114.01,33.694,166.871c21.592,51.05,52.501,96.895,91.867,136.26c10.74,10.74,21.98,20.828,33.659,30.291&#10;&#9;&#9;&#9;c0.046,0.038,0.093,0.074,0.139,0.112c31.091,25.172,65.396,45.785,102.462,61.463c52.86,22.358,109.004,33.694,166.871,33.694&#10;&#9;&#9;&#9;s114.01-11.336,166.87-33.694c37.066-15.677,71.371-36.29,102.461-61.461c0.047-0.039,0.096-0.076,0.143-0.115&#10;&#9;&#9;&#9;c11.679-9.463,22.917-19.55,33.657-30.29c39.365-39.366,70.273-85.21,91.866-136.26c22.358-52.861,33.694-109.004,33.694-166.871&#10;&#9;&#9;&#9;S1066.234,507.276,1043.876,454.416z M804.691,990.139c-49.343,20.87-101.766,31.452-155.813,31.452&#10;&#9;&#9;&#9;s-106.47-10.582-155.813-31.452c-32.516-13.753-62.768-31.565-90.389-53.164v-16.129c0-115.893,94.282-210.178,210.168-210.178&#10;&#9;&#9;&#9;h72.065c115.888,0,210.169,94.286,210.169,210.178v16.129C867.46,958.574,837.208,976.385,804.691,990.139z M1017.731,777.098&#10;&#9;&#9;&#9;c-20.161,47.667-49.026,90.478-85.795,127.246c-2.834,2.834-5.717,5.605-8.622,8.345c-2.025-60.663-26.589-117.403-69.717-160.534&#10;&#9;&#9;&#9;c-45.058-45.06-104.964-69.875-168.686-69.875h-72.065c-63.722,0-123.628,24.815-168.685,69.875&#10;&#9;&#9;&#9;c-43.129,43.131-67.693,99.871-69.717,160.534c-2.906-2.74-5.789-5.511-8.623-8.345c-36.768-36.768-65.634-79.58-85.795-127.246&#10;&#9;&#9;&#9;c-20.87-49.342-31.452-101.765-31.452-155.812c0-54.047,10.582-106.47,31.452-155.813c20.161-47.667,49.027-90.478,85.795-127.246&#10;&#9;&#9;&#9;c36.768-36.768,79.58-65.633,127.246-85.794c49.343-20.87,101.766-31.452,155.813-31.452s106.47,10.582,155.813,31.452&#10;&#9;&#9;&#9;c47.666,20.161,90.478,49.027,127.245,85.794c36.769,36.768,65.634,79.58,85.795,127.246&#10;&#9;&#9;&#9;c20.87,49.342,31.452,101.765,31.452,155.813C1049.184,675.333,1038.602,727.756,1017.731,777.098z" style="fill:#AEB6BA;"/>
		<path d="M648.879,346.284c-83.744,0-151.875,68.131-151.875,151.875s68.131,151.875,151.875,151.875&#10;&#9;&#9;&#9;s151.874-68.131,151.874-151.875S732.623,346.284,648.879,346.284z M648.879,621.647c-68.092,0-123.488-55.396-123.488-123.488&#10;&#9;&#9;&#9;S580.787,374.67,648.879,374.67c68.091,0,123.487,55.396,123.487,123.488S716.97,621.647,648.879,621.647z" style="fill:#AEB6BA;"/>
	</g>
	<g>
		<circle r="414.498" cy="621.286" cx="1565.317" style="fill:#DFE5E8;"/>
		<path d="M1825.716,920.844v22.935c-71.163,57.542-161.754,92.003-260.401,92.003&#10;&#9;&#9;&#9;c-98.638,0-189.239-34.461-260.392-91.984v-22.955c0-123.912,100.451-224.372,224.362-224.372h72.069&#10;&#9;&#9;&#9;C1725.265,696.473,1825.716,796.933,1825.716,920.844z" style="fill:#AEB6BA;"/>
		<circle r="137.681" cy="498.159" cx="1565.317" style="fill:#AEB6BA;"/>
		<path d="M1565.317,1049.978c-57.867,0-114.011-11.336-166.871-33.694&#10;&#9;&#9;&#9;c-51.05-21.592-96.895-52.5-136.261-91.866c-39.365-39.366-70.273-85.21-91.866-136.26&#10;&#9;&#9;&#9;c-22.358-52.86-33.694-109.004-33.694-166.871s11.336-114.01,33.694-166.871c21.593-51.05,52.501-96.895,91.866-136.261&#10;&#9;&#9;&#9;c39.366-39.366,85.211-70.274,136.261-91.866c52.86-22.358,109.004-33.694,166.871-33.694s114.01,11.336,166.87,33.694&#10;&#9;&#9;&#9;c51.051,21.592,96.895,52.5,136.261,91.866c39.365,39.366,70.273,85.21,91.866,136.261&#10;&#9;&#9;&#9;c22.358,52.86,33.694,109.004,33.694,166.871s-11.336,114.01-33.694,166.871c-21.593,51.05-52.501,96.895-91.866,136.26&#10;&#9;&#9;&#9;c-39.366,39.366-85.21,70.274-136.261,91.866C1679.327,1038.641,1623.185,1049.978,1565.317,1049.978z M1565.317,220.981&#10;&#9;&#9;&#9;c-54.047,0-106.471,10.582-155.813,31.452c-47.667,20.161-90.479,49.027-127.246,85.794&#10;&#9;&#9;&#9;c-36.769,36.768-65.634,79.58-85.795,127.246c-20.87,49.342-31.452,101.765-31.452,155.813c0,54.047,10.582,106.47,31.452,155.812&#10;&#9;&#9;&#9;c20.161,47.667,49.026,90.478,85.795,127.246c36.768,36.768,79.579,65.633,127.246,85.794&#10;&#9;&#9;&#9;c49.342,20.87,101.766,31.452,155.813,31.452s106.47-10.582,155.813-31.452c47.666-20.161,90.478-49.027,127.245-85.794&#10;&#9;&#9;&#9;c36.769-36.768,65.634-79.58,85.795-127.246c20.87-49.342,31.452-101.765,31.452-155.812c0-54.047-10.582-106.47-31.452-155.813&#10;&#9;&#9;&#9;c-20.161-47.667-49.026-90.478-85.795-127.246c-36.768-36.768-79.579-65.633-127.245-85.794&#10;&#9;&#9;&#9;C1671.787,231.563,1619.364,220.981,1565.317,220.981z" style="fill:#AEB6BA;"/>
	</g>
</g>
</svg>